<svg xmlns="http://www.w3.org/2000/svg" viewBox="0 0 200 200">
  <!-- 底色 -->
  <circle cx="100" cy="100" r="96" fill="#2c3e50"/>
  <!-- 外圈 -->
  <circle cx="100" cy="100" r="80" fill="none" stroke="rgba(255,255,255,0.1)" stroke-width="0.6" stroke-dasharray="3 6"/>
  <circle cx="100" cy="100" r="72" fill="none" stroke="rgba(52,152,219,0.5)" stroke-width="1.5"/>
  <!-- 刻度 -->
  <g stroke="rgba(52,152,219,0.35)" stroke-width="0.6">
    <line x1="100" y1="28" x2="100" y2="36"/><line x1="100" y1="164" x2="100" y2="172"/>
    <line x1="28" y1="100" x2="36" y2="100"/><line x1="164" y1="100" x2="172" y2="100"/>
    <line x1="51" y1="51" x2="56.5" y2="56.5"/><line x1="143.5" y1="143.5" x2="149" y2="149"/>
    <line x1="149" y1="51" x2="143.5" y2="56.5"/><line x1="56.5" y1="143.5" x2="51" y2="149"/>
  </g>
  <!-- 内圈 -->
  <circle cx="100" cy="100" r="56" fill="none" stroke="rgba(52,152,219,0.25)" stroke-width="0.5"/>
  <!-- 指针 (北-红) -->
  <polygon points="100,34 108,100 100,105 92,100" fill="#e74c3c" opacity="0.9"/>
  <!-- 指针 (南-白) -->
  <polygon points="100,166 92,100 100,95 108,100" fill="rgba(52,152,219,0.15)" stroke="rgba(52,152,219,0.35)" stroke-width="0.5"/>
  <!-- 中心 -->
  <circle cx="100" cy="100" r="6" fill="rgba(52,152,219,0.5)" stroke="rgba(52,152,219,0.5)" stroke-width="1"/>
  <circle cx="100" cy="100" r="2.5" fill="#e67e22"/>
  <!-- 方位标 -->
  <text x="100" y="22" text-anchor="middle" fill="#e74c3c" font-size="12" font-weight="bold" font-family="sans-serif">N</text>
  <text x="100" y="188" text-anchor="middle" fill="rgba(255,255,255,0.4)" font-size="10" font-family="sans-serif">S</text>
  <text x="18" y="104" text-anchor="middle" fill="rgba(255,255,255,0.4)" font-size="10" font-family="sans-serif">W</text>
  <text x="182" y="104" text-anchor="middle" fill="rgba(255,255,255,0.4)" font-size="10" font-family="sans-serif">E</text>
</svg>
